<?xml version="1.0" encoding="UTF-8" standalone="no"?>
<!DOCTYPE svg PUBLIC "-//W3C//DTD SVG 1.1//EN"
 "http://www.w3.org/Graphics/SVG/1.1/DTD/svg11.dtd">
<!-- Generated by graphviz version 2.40.1 (20161225.0304)
 -->
<!-- Title: %3 Pages: 1 -->
<svg width="1176pt" height="324pt"
 viewBox="0.00 0.00 1176.00 324.43" xmlns="http://www.w3.org/2000/svg" xmlns:xlink="http://www.w3.org/1999/xlink">
<g id="graph0" class="graph" transform="scale(1 1) rotate(0) translate(4 320.4303)">
<title>%3</title>
<polygon fill="#ffffff" stroke="transparent" points="-4,4 -4,-320.4303 1172,-320.4303 1172,4 -4,4"/>
<g id="clust1" class="cluster">
<title>cluster_markdown</title>
<polygon fill="none" stroke="#ff0000" stroke-dasharray="5,2" points="462,-24.375 462,-98.375 752,-98.375 752,-24.375 462,-24.375"/>
<text text-anchor="middle" x="607" y="-83.175" font-family="Times,serif" font-size="14.00" fill="#000000">Markdown</text>
</g>
<g id="clust2" class="cluster">
<title>cluster_DB</title>
<polygon fill="none" stroke="#0000ff" stroke-dasharray="1,5" points="8,-8 8,-114.75 454,-114.75 454,-8 8,-8"/>
<text text-anchor="middle" x="231" y="-99.55" font-family="Times,serif" font-size="14.00" fill="#000000">Database</text>
</g>
<g id="clust3" class="cluster">
<title>cluster_search</title>
<polygon fill="none" stroke="#00ff00" points="760,-8 760,-114.75 1160,-114.75 1160,-8 760,-8"/>
<text text-anchor="middle" x="960" y="-99.55" font-family="Times,serif" font-size="14.00" fill="#000000">Search</text>
</g>
<!-- Post -->
<g id="node1" class="node">
<title>Post</title>
<path fill="none" stroke="#000000" d="M446.083,-78.3981C446.083,-81.8343 418.2564,-84.6255 384,-84.6255 349.7436,-84.6255 321.917,-81.8343 321.917,-78.3981 321.917,-78.3981 321.917,-22.3519 321.917,-22.3519 321.917,-18.9157 349.7436,-16.1245 384,-16.1245 418.2564,-16.1245 446.083,-18.9157 446.083,-22.3519 446.083,-22.3519 446.083,-78.3981 446.083,-78.3981"/>
<path fill="none" stroke="#000000" d="M446.083,-78.3981C446.083,-74.9619 418.2564,-72.1707 384,-72.1707 349.7436,-72.1707 321.917,-74.9619 321.917,-78.3981"/>
<text text-anchor="start" x="346.4775" y="-61.175" font-family="Times,serif" font-size="14.00" fill="#000000">Retrieve Post</text>
<text text-anchor="start" x="343.3774" y="-47.175" font-family="Times,serif" font-style="italic" font-size="14.00" fill="#000000">databaseGet.js</text>
<text text-anchor="start" x="329.9585" y="-33.175" font-family="Times,serif" font-weight="bold" font-size="14.00" fill="#000000">getPost()\getPage()</text>
</g>
<!-- Tags -->
<g id="node2" class="node">
<title>Tags</title>
<path fill="none" stroke="#000000" d="M303.8799,-78.3981C303.8799,-81.8343 265.3872,-84.6255 218,-84.6255 170.6128,-84.6255 132.1201,-81.8343 132.1201,-78.3981 132.1201,-78.3981 132.1201,-22.3519 132.1201,-22.3519 132.1201,-18.9157 170.6128,-16.1245 218,-16.1245 265.3872,-16.1245 303.8799,-18.9157 303.8799,-22.3519 303.8799,-22.3519 303.8799,-78.3981 303.8799,-78.3981"/>
<path fill="none" stroke="#000000" d="M303.8799,-78.3981C303.8799,-74.9619 265.3872,-72.1707 218,-72.1707 170.6128,-72.1707 132.1201,-74.9619 132.1201,-78.3981"/>
<text text-anchor="start" x="179.5444" y="-61.175" font-family="Times,serif" font-size="14.00" fill="#000000">Retrieve Tags</text>
<text text-anchor="start" x="177.3774" y="-47.175" font-family="Times,serif" font-style="italic" font-size="14.00" fill="#000000">databaseGet.js</text>
<text text-anchor="start" x="140.0601" y="-33.175" font-family="Times,serif" font-weight="bold" font-size="14.00" fill="#000000">getTags()\getTagsForPage()</text>
</g>
<!-- Users -->
<g id="node3" class="node">
<title>Users</title>
<path fill="none" stroke="#000000" stroke-dasharray="5,2" d="M113.7454,-78.3981C113.7454,-81.8343 91.8969,-84.6255 65,-84.6255 38.1031,-84.6255 16.2546,-81.8343 16.2546,-78.3981 16.2546,-78.3981 16.2546,-22.3519 16.2546,-22.3519 16.2546,-18.9157 38.1031,-16.1245 65,-16.1245 91.8969,-16.1245 113.7454,-18.9157 113.7454,-22.3519 113.7454,-22.3519 113.7454,-78.3981 113.7454,-78.3981"/>
<path fill="none" stroke="#000000" stroke-dasharray="5,2" d="M113.7454,-78.3981C113.7454,-74.9619 91.8969,-72.1707 65,-72.1707 38.1031,-72.1707 16.2546,-74.9619 16.2546,-78.3981"/>
<text text-anchor="start" x="26.3223" y="-61.175" font-family="Times,serif" font-size="14.00" fill="#000000">Retrieve User</text>
<text text-anchor="start" x="24.3774" y="-47.175" font-family="Times,serif" font-style="italic" font-size="14.00" fill="#000000">databaseGet.js</text>
<text text-anchor="start" x="38.5688" y="-33.175" font-family="Times,serif" font-weight="bold" font-size="14.00" fill="#000000">getUser()</text>
</g>
<!-- user -->
<g id="node4" class="node">
<title>user</title>
<ellipse fill="none" stroke="#000000" cx="584" cy="-291.5902" rx="24.6814" ry="24.6814"/>
<text text-anchor="middle" x="584" y="-287.3902" font-family="Times,serif" font-size="14.00" fill="#000000">user</text>
</g>
<!-- server -->
<g id="node8" class="node">
<title>server</title>
<polygon fill="none" stroke="#000000" points="611,-230.75 561,-230.75 557,-226.75 557,-194.75 607,-194.75 611,-198.75 611,-230.75"/>
<polyline fill="none" stroke="#000000" points="607,-226.75 557,-226.75 "/>
<polyline fill="none" stroke="#000000" points="607,-226.75 607,-194.75 "/>
<polyline fill="none" stroke="#000000" points="607,-226.75 611,-230.75 "/>
<text text-anchor="start" x="566.8999" y="-216.55" font-family="Times,serif" font-size="14.00" fill="#000000">server</text>
<text text-anchor="start" x="567.4741" y="-202.55" font-family="Times,serif" font-style="italic" font-size="14.00" fill="#000000">app.js</text>
</g>
<!-- user&#45;&gt;server -->
<g id="edge1" class="edge">
<title>user&#45;&gt;server</title>
<path fill="none" stroke="#000000" d="M584,-256.5506C584,-251.46 584,-246.2707 584,-241.3281"/>
<polygon fill="#000000" stroke="#000000" points="580.5001,-256.6446 584,-266.6446 587.5001,-256.6447 580.5001,-256.6446"/>
<polygon fill="#000000" stroke="#000000" points="587.5001,-241.0357 584,-231.0357 580.5001,-241.0357 587.5001,-241.0357"/>
</g>
<!-- STags -->
<g id="node5" class="node">
<title>STags</title>
<path fill="none" stroke="#000000" d="M1152.3217,-78.3981C1152.3217,-81.8343 1126.6292,-84.6255 1095,-84.6255 1063.3708,-84.6255 1037.6783,-81.8343 1037.6783,-78.3981 1037.6783,-78.3981 1037.6783,-22.3519 1037.6783,-22.3519 1037.6783,-18.9157 1063.3708,-16.1245 1095,-16.1245 1126.6292,-16.1245 1152.3217,-18.9157 1152.3217,-22.3519 1152.3217,-22.3519 1152.3217,-78.3981 1152.3217,-78.3981"/>
<path fill="none" stroke="#000000" d="M1152.3217,-78.3981C1152.3217,-74.9619 1126.6292,-72.1707 1095,-72.1707 1063.3708,-72.1707 1037.6783,-74.9619 1037.6783,-78.3981"/>
<text text-anchor="start" x="1061.21" y="-61.175" font-family="Times,serif" font-size="14.00" fill="#000000">Search Tags</text>
<text text-anchor="start" x="1045.8394" y="-47.175" font-family="Times,serif" font-style="italic" font-size="14.00" fill="#000000">searchInterface.js</text>
<text text-anchor="start" x="1059.3438" y="-33.175" font-family="Times,serif" font-weight="bold" font-size="14.00" fill="#000000">searchTags()</text>
</g>
<!-- SPosts -->
<g id="node6" class="node">
<title>SPosts</title>
<path fill="none" stroke="#000000" d="M1020.3217,-78.3981C1020.3217,-81.8343 994.6292,-84.6255 963,-84.6255 931.3708,-84.6255 905.6783,-81.8343 905.6783,-78.3981 905.6783,-78.3981 905.6783,-22.3519 905.6783,-22.3519 905.6783,-18.9157 931.3708,-16.1245 963,-16.1245 994.6292,-16.1245 1020.3217,-18.9157 1020.3217,-22.3519 1020.3217,-22.3519 1020.3217,-78.3981 1020.3217,-78.3981"/>
<path fill="none" stroke="#000000" d="M1020.3217,-78.3981C1020.3217,-74.9619 994.6292,-72.1707 963,-72.1707 931.3708,-72.1707 905.6783,-74.9619 905.6783,-78.3981"/>
<text text-anchor="start" x="927.4189" y="-61.175" font-family="Times,serif" font-size="14.00" fill="#000000">Search Posts</text>
<text text-anchor="start" x="913.8394" y="-47.175" font-family="Times,serif" font-style="italic" font-size="14.00" fill="#000000">searchInterface.js</text>
<text text-anchor="start" x="925.6758" y="-33.175" font-family="Times,serif" font-weight="bold" font-size="14.00" fill="#000000">searchPosts()</text>
</g>
<!-- SMD -->
<g id="node7" class="node">
<title>SMD</title>
<polygon fill="none" stroke="#000000" stroke-dasharray="5,2" points="887.5244,-75.375 772.4756,-75.375 768.4756,-71.375 768.4756,-25.375 883.5244,-25.375 887.5244,-29.375 887.5244,-75.375"/>
<polyline fill="none" stroke="#000000" stroke-dasharray="5,2" points="883.5244,-71.375 768.4756,-71.375 "/>
<polyline fill="none" stroke="#000000" stroke-dasharray="5,2" points="883.5244,-71.375 883.5244,-25.375 "/>
<polyline fill="none" stroke="#000000" stroke-dasharray="5,2" points="883.5244,-71.375 887.5244,-75.375 "/>
<text text-anchor="start" x="776.4878" y="-61.175" font-family="Times,serif" font-size="14.00" fill="#000000">Search Markdown</text>
<text text-anchor="start" x="778.8394" y="-47.175" font-family="Times,serif" font-style="italic" font-size="14.00" fill="#000000">searchInterface.js</text>
<text text-anchor="start" x="778.6411" y="-33.175" font-family="Times,serif" font-weight="bold" font-size="14.00" fill="#000000">hardcodeSearch()</text>
</g>
<!-- blog -->
<g id="node9" class="node">
<title>blog</title>
<polygon fill="none" stroke="#000000" points="447.7862,-158.75 218.2138,-158.75 214.2138,-154.75 214.2138,-122.75 443.7862,-122.75 447.7862,-126.75 447.7862,-158.75"/>
<polyline fill="none" stroke="#000000" points="443.7862,-154.75 214.2138,-154.75 "/>
<polyline fill="none" stroke="#000000" points="443.7862,-154.75 443.7862,-122.75 "/>
<polyline fill="none" stroke="#000000" points="443.7862,-154.75 447.7862,-158.75 "/>
<text text-anchor="start" x="318.5552" y="-144.55" font-family="Times,serif" font-size="14.00" fill="#000000">blog</text>
<text text-anchor="start" x="222.1069" y="-130.55" font-family="Times,serif" font-style="italic" font-size="14.00" fill="#000000">views/blogPage.jsx\views/blogPost.jsx</text>
</g>
<!-- server&#45;&gt;blog -->
<g id="edge3" class="edge">
<title>server&#45;&gt;blog</title>
<path fill="none" stroke="#000000" d="M547.0647,-202.2388C509.7263,-191.6128 451.0124,-174.9037 404.2087,-161.5841"/>
<polygon fill="#000000" stroke="#000000" points="546.3484,-205.6738 556.9246,-205.0447 548.2645,-198.9412 546.3484,-205.6738"/>
<polygon fill="#000000" stroke="#000000" points="404.9902,-158.1676 394.4141,-158.7967 403.0741,-164.9003 404.9902,-158.1676"/>
</g>
<!-- hardcode -->
<g id="node10" class="node">
<title>hardcode</title>
<polygon fill="none" stroke="#000000" points="640.7209,-158.75 531.2791,-158.75 527.2791,-154.75 527.2791,-122.75 636.7209,-122.75 640.7209,-126.75 640.7209,-158.75"/>
<polyline fill="none" stroke="#000000" points="636.7209,-154.75 527.2791,-154.75 "/>
<polyline fill="none" stroke="#000000" points="636.7209,-154.75 636.7209,-122.75 "/>
<polyline fill="none" stroke="#000000" points="636.7209,-154.75 640.7209,-158.75 "/>
<text text-anchor="start" x="558.3481" y="-144.55" font-family="Times,serif" font-size="14.00" fill="#000000">hardcode</text>
<text text-anchor="start" x="535.3896" y="-130.55" font-family="Times,serif" font-style="italic" font-size="14.00" fill="#000000">proj.jsx\about.jsx</text>
</g>
<!-- server&#45;&gt;hardcode -->
<g id="edge2" class="edge">
<title>server&#45;&gt;hardcode</title>
<path fill="none" stroke="#000000" d="M584,-184.3226C584,-179.4292 584,-174.3404 584,-169.4401"/>
<polygon fill="#000000" stroke="#000000" points="580.5001,-184.5813 584,-194.5814 587.5001,-184.5814 580.5001,-184.5813"/>
<polygon fill="#000000" stroke="#000000" points="587.5001,-169.1632 584,-159.1633 580.5001,-169.1633 587.5001,-169.1632"/>
</g>
<!-- search -->
<g id="node13" class="node">
<title>search</title>
<polygon fill="none" stroke="#000000" points="952.3217,-158.75 841.6783,-158.75 837.6783,-154.75 837.6783,-122.75 948.3217,-122.75 952.3217,-126.75 952.3217,-158.75"/>
<polyline fill="none" stroke="#000000" points="948.3217,-154.75 837.6783,-154.75 "/>
<polyline fill="none" stroke="#000000" points="948.3217,-154.75 948.3217,-122.75 "/>
<polyline fill="none" stroke="#000000" points="948.3217,-154.75 952.3217,-158.75 "/>
<text text-anchor="start" x="877.124" y="-144.55" font-family="Times,serif" font-size="14.00" fill="#000000">search</text>
<text text-anchor="start" x="845.8394" y="-130.55" font-family="Times,serif" font-style="italic" font-size="14.00" fill="#000000">searchInterface.js</text>
</g>
<!-- server&#45;&gt;search -->
<g id="edge9" class="edge">
<title>server&#45;&gt;search</title>
<path fill="none" stroke="#000000" d="M620.8181,-204.2262C671.6964,-192.4473 764.3887,-170.988 827.7917,-156.3095"/>
<polygon fill="#000000" stroke="#000000" points="620.0081,-200.8211 611.0552,-206.4864 621.5869,-207.6407 620.0081,-200.8211"/>
<polygon fill="#000000" stroke="#000000" points="828.7523,-159.6797 837.7052,-154.0144 827.1734,-152.8601 828.7523,-159.6797"/>
</g>
<!-- blog&#45;&gt;Post -->
<g id="edge6" class="edge">
<title>blog&#45;&gt;Post</title>
<path fill="none" stroke="#000000" d="M346.8047,-113.7999C350.5691,-107.381 354.6794,-100.3721 358.7503,-93.4305"/>
<polygon fill="#000000" stroke="#000000" points="343.765,-112.0646 341.7253,-122.4613 349.8032,-115.6057 343.765,-112.0646"/>
<polygon fill="#000000" stroke="#000000" points="361.817,-95.1198 363.8567,-84.7232 355.7788,-91.5787 361.817,-95.1198"/>
</g>
<!-- blog&#45;&gt;Tags -->
<g id="edge7" class="edge">
<title>blog&#45;&gt;Tags</title>
<path fill="none" stroke="#000000" d="M300.3997,-116.2765C290.7724,-108.5768 279.8647,-99.8531 269.2102,-91.3318"/>
<polygon fill="#000000" stroke="#000000" points="298.4087,-119.1659 308.4044,-122.6785 302.7809,-113.6992 298.4087,-119.1659"/>
<polygon fill="#000000" stroke="#000000" points="271.133,-88.3879 261.1373,-84.8753 266.7608,-93.8546 271.133,-88.3879"/>
</g>
<!-- blog&#45;&gt;Users -->
<g id="edge8" class="edge">
<title>blog&#45;&gt;Users</title>
<path fill="none" stroke="#000000" d="M203.9742,-132.1082C169.7534,-128.1845 138.0499,-122.6024 123,-114.75 112.5814,-109.3141 103.1206,-101.2014 95.0032,-92.5518"/>
<polygon fill="#000000" stroke="#000000" points="203.8471,-135.615 214.1682,-133.2222 204.6076,-128.6565 203.8471,-135.615"/>
<polygon fill="#000000" stroke="#000000" points="97.4646,-90.0512 88.2252,-84.8662 92.2145,-94.6813 97.4646,-90.0512"/>
</g>
<!-- About -->
<g id="node11" class="node">
<title>About</title>
<polygon fill="none" stroke="#000000" points="744.259,-68.375 615.741,-68.375 611.741,-64.375 611.741,-32.375 740.259,-32.375 744.259,-36.375 744.259,-68.375"/>
<polyline fill="none" stroke="#000000" points="740.259,-64.375 611.741,-64.375 "/>
<polyline fill="none" stroke="#000000" points="740.259,-64.375 740.259,-32.375 "/>
<polyline fill="none" stroke="#000000" points="740.259,-64.375 744.259,-68.375 "/>
<text text-anchor="start" x="660.5" y="-54.175" font-family="Times,serif" font-size="14.00" fill="#000000">About</text>
<text text-anchor="start" x="619.8706" y="-40.175" font-family="Times,serif" font-style="italic" font-size="14.00" fill="#000000">markdown/about.md</text>
</g>
<!-- hardcode&#45;&gt;About -->
<g id="edge4" class="edge">
<title>hardcode&#45;&gt;About</title>
<path fill="none" stroke="#000000" d="M610.2824,-115.4812C623.225,-103.0377 638.788,-88.0748 651.7291,-75.6328"/>
<polygon fill="#000000" stroke="#000000" points="607.8053,-113.0075 603.0223,-122.4613 612.6568,-118.0536 607.8053,-113.0075"/>
<polygon fill="#000000" stroke="#000000" points="654.223,-78.0903 659.006,-68.6365 649.3715,-73.0442 654.223,-78.0903"/>
</g>
<!-- Proj -->
<g id="node12" class="node">
<title>Proj</title>
<polygon fill="none" stroke="#000000" points="593.7074,-68.375 474.2926,-68.375 470.2926,-64.375 470.2926,-32.375 589.7074,-32.375 593.7074,-36.375 593.7074,-68.375"/>
<polyline fill="none" stroke="#000000" points="589.7074,-64.375 470.2926,-64.375 "/>
<polyline fill="none" stroke="#000000" points="589.7074,-64.375 589.7074,-32.375 "/>
<polyline fill="none" stroke="#000000" points="589.7074,-64.375 593.7074,-68.375 "/>
<text text-anchor="start" x="509.4482" y="-54.175" font-family="Times,serif" font-size="14.00" fill="#000000">Projects</text>
<text text-anchor="start" x="478.1465" y="-40.175" font-family="Times,serif" font-style="italic" font-size="14.00" fill="#000000">markdown/proj.md</text>
</g>
<!-- hardcode&#45;&gt;Proj -->
<g id="edge5" class="edge">
<title>hardcode&#45;&gt;Proj</title>
<path fill="none" stroke="#000000" d="M568.2805,-113.4298C561.6951,-101.9845 554.0609,-88.7164 547.4992,-77.3123"/>
<polygon fill="#000000" stroke="#000000" points="565.4561,-115.5392 573.477,-122.4613 571.5235,-112.0481 565.4561,-115.5392"/>
<polygon fill="#000000" stroke="#000000" points="550.5282,-75.5586 542.5073,-68.6365 544.4609,-79.0497 550.5282,-75.5586"/>
</g>
<!-- search&#45;&gt;STags -->
<g id="edge10" class="edge">
<title>search&#45;&gt;STags</title>
<path fill="none" stroke="#000000" d="M962.2218,-131.3551C989.3691,-126.8105 1017.0798,-120.9906 1029,-114.75 1040.1893,-108.8921 1050.7512,-100.5294 1060.0094,-91.7626"/>
<polygon fill="#000000" stroke="#000000" points="961.5856,-127.9125 952.2759,-132.9702 962.7077,-134.822 961.5856,-127.9125"/>
<polygon fill="#000000" stroke="#000000" points="1062.5087,-94.2133 1067.1419,-84.6853 1057.5781,-89.2444 1062.5087,-94.2133"/>
</g>
<!-- search&#45;&gt;SPosts -->
<g id="edge11" class="edge">
<title>search&#45;&gt;SPosts</title>
<path fill="none" stroke="#000000" d="M914.8497,-114.3689C919.8617,-107.7078 925.373,-100.3829 930.8218,-93.1413"/>
<polygon fill="#000000" stroke="#000000" points="911.9765,-112.3662 908.7608,-122.4613 917.57,-116.5749 911.9765,-112.3662"/>
<polygon fill="#000000" stroke="#000000" points="933.9401,-94.8182 937.1557,-84.7232 928.3466,-90.6095 933.9401,-94.8182"/>
</g>
<!-- search&#45;&gt;SMD -->
<g id="edge12" class="edge">
<title>search&#45;&gt;SMD</title>
<path fill="none" stroke="#000000" d="M875.4543,-114.3851C868.3485,-104.8004 860.2229,-93.8399 852.7276,-83.7295"/>
<polygon fill="#000000" stroke="#000000" points="872.6744,-116.5125 881.4416,-122.4613 878.2977,-112.3436 872.6744,-116.5125"/>
<polygon fill="#000000" stroke="#000000" points="855.3831,-81.4345 846.616,-75.4857 849.7598,-85.6034 855.3831,-81.4345"/>
</g>
</g>
</svg>
